<svg width="129" height="33" viewBox="0 0 129 33" fill="none" xmlns="http://www.w3.org/2000/svg">
<g clip-path="url(#clip0_14_614)">
<path d="M29.7257 29.9684H36.3315V10.1513H29.7257V29.9684ZM39.6343 6.8484H56.1486V0.242676H39.6343V6.8484ZM29.7257 0.242676H36.3315V6.8484H29.7257V0.242676ZM19.8172 29.9684H26.4229V0.242676H19.8172V29.9684ZM9.90858 23.3627H16.5143V0.242676H9.90858V23.3627ZM0 29.9684H6.60572V0.242676H0V29.9684ZM39.6343 29.9684H46.2401V10.1513H39.6343V29.9684Z" fill="black"/>
<path d="M63.707 17.5825H66.2189V27.8723H72.0394V29.9684H63.707V17.5825Z" fill="black"/>
<path d="M72.5935 25.5164C72.5935 22.8833 74.3778 20.8392 76.9762 20.8392C79.8345 20.8392 81.3589 23.0219 81.3589 26.192H74.9148C75.088 27.5605 75.8502 28.4094 77.1841 28.4094C78.1022 28.4094 78.6392 27.9936 78.899 27.318H81.2203C80.8912 28.8944 79.488 30.2282 77.2014 30.2282C74.2565 30.2283 72.5935 28.1668 72.5935 25.5164ZM74.9494 24.5637H78.8991C78.8298 23.4377 78.0849 22.6582 77.0109 22.6582C75.7636 22.6581 75.1573 23.403 74.9494 24.5637Z" fill="black"/>
<path d="M87.768 28.981H87.7334C87.283 29.6566 86.6421 30.1763 85.1177 30.1763C83.2987 30.1763 82.0168 29.2235 82.0168 27.4566C82.0168 25.4991 83.6106 24.8754 85.5854 24.5983C87.0578 24.3904 87.7334 24.2692 87.7334 23.5936C87.7334 22.9526 87.2311 22.5369 86.2437 22.5369C85.135 22.5369 84.598 22.9353 84.5287 23.7841H82.4326C82.5019 22.225 83.6625 20.8566 86.261 20.8566C88.9287 20.8566 90.0028 22.0518 90.0028 24.1306V28.6519C90.0028 29.3274 90.1067 29.7259 90.3146 29.8818V29.9684H88.0453C87.9067 29.7952 87.82 29.3794 87.768 28.981ZM87.7854 26.833V25.4991C87.3696 25.7416 86.7287 25.8802 86.1397 26.0188C84.9098 26.296 84.3035 26.5731 84.3035 27.4046C84.3035 28.2361 84.8578 28.5306 85.6893 28.5306C87.0405 28.5306 87.7854 27.6991 87.7854 26.833Z" fill="black"/>
<path d="M93.7615 22.5022H93.8134C94.3504 21.4975 94.9567 20.9778 95.9961 20.9778C96.2559 20.9778 96.4118 20.9951 96.5505 21.0471V23.1085H96.4985C94.9567 22.9526 93.8481 23.7668 93.8481 25.6377V29.9684H91.4922V21.0817H93.7615L93.7615 22.5022Z" fill="black"/>
<path d="M99.8764 22.2944H99.9284C100.535 21.3416 101.349 20.8392 102.561 20.8392C104.398 20.8392 105.628 22.225 105.628 24.1653V29.9685H103.272V24.5117C103.272 23.559 102.717 22.8834 101.73 22.8834C100.691 22.8834 99.9284 23.7149 99.9284 24.9275V29.9685H97.5725V21.0817H99.8765L99.8764 22.2944Z" fill="black"/>
<path d="M107.083 17.5825H109.438V19.6959H107.083V17.5825ZM107.083 21.0817H109.438V29.9684H107.083V21.0817Z" fill="black"/>
<path d="M113.267 22.2944H113.319C113.925 21.3416 114.739 20.8392 115.952 20.8392C117.788 20.8392 119.018 22.225 119.018 24.1653V29.9685H116.662V24.5117C116.662 23.559 116.108 22.8834 115.12 22.8834C114.081 22.8834 113.319 23.7149 113.319 24.9275V29.9685H110.963V21.0817H113.267L113.267 22.2944Z" fill="black"/>
<path d="M120.23 30.2283H122.569C122.759 30.7826 123.262 31.2157 124.353 31.2157C125.687 31.2157 126.328 30.5747 126.328 29.3621V28.392H126.276C125.756 28.981 125.081 29.4314 123.955 29.4314C121.98 29.4314 120.04 27.8723 120.04 25.1873C120.04 22.5369 121.634 20.8392 123.885 20.8392C124.994 20.8392 125.808 21.2723 126.345 22.0172H126.38V21.0817H128.649V29.2928C128.649 30.5401 128.251 31.3889 127.593 31.9952C126.848 32.6881 125.704 33 124.388 33C121.963 33 120.473 31.9605 120.23 30.2283ZM126.449 25.1353C126.449 23.836 125.756 22.7274 124.336 22.7274C123.141 22.7274 122.344 23.6628 122.344 25.1526C122.344 26.6597 123.141 27.5432 124.353 27.5432C125.843 27.5432 126.449 26.4519 126.449 25.1353Z" fill="black"/>
<path d="M63.1702 6.46147C63.1702 2.75438 65.4915 0 69.1466 0C72.8017 0 75.1057 2.75438 75.1057 6.46147C75.1057 10.1686 72.8017 12.9056 69.1466 12.9056C65.4915 12.9056 63.1702 10.1686 63.1702 6.46147ZM72.5419 6.46147C72.5419 3.98428 71.4332 2.06144 69.1639 2.06144C66.8946 2.06144 65.734 3.98428 65.734 6.46147C65.734 8.92132 66.8946 10.8442 69.1639 10.8442C71.4332 10.8442 72.5419 8.92132 72.5419 6.46147Z" fill="black"/>
<path d="M76.2834 3.74178H78.5528V4.85047H78.6047C79.1764 4.07095 80.0079 3.49927 81.2205 3.49927C83.5764 3.49927 85.0835 5.42211 85.0835 8.19379C85.0835 11.0694 83.5244 12.8883 81.2378 12.8883C79.9905 12.8883 79.1763 12.3859 78.674 11.6237H78.6393V15.5387H76.2834V3.74178ZM82.6929 8.26307C82.6929 6.58278 82.1039 5.40481 80.6488 5.40481C79.1763 5.40481 78.5874 6.66939 78.5874 8.26307C78.5874 9.87408 79.3322 10.9308 80.7354 10.9308C81.9308 10.9308 82.6929 9.9434 82.6929 8.26307Z" fill="black"/>
<path d="M85.7417 8.17645C85.7417 5.54337 87.526 3.49927 90.1244 3.49927C92.9827 3.49927 94.5071 5.68196 94.5071 8.85205H88.063C88.2362 10.2205 88.9984 11.0694 90.3323 11.0694C91.2504 11.0694 91.7874 10.6536 92.0472 9.97799H94.3685C94.0394 11.5544 92.6363 12.8883 90.3496 12.8883C87.4047 12.8883 85.7417 10.8268 85.7417 8.17645ZM88.0977 7.2237H92.0473C91.978 6.09771 91.2331 5.31819 90.1591 5.31819C88.9118 5.31815 88.3055 6.06303 88.0977 7.2237Z" fill="black"/>
<path d="M97.9021 4.95438H97.954C98.5604 4.00163 99.3745 3.49927 100.587 3.49927C102.423 3.49927 103.653 4.88507 103.653 6.82529V12.6285H101.297V7.17176C101.297 6.21901 100.743 5.54341 99.7556 5.54341C98.7162 5.54341 97.954 6.37494 97.954 7.58755V12.6285H95.5981V3.74178H97.9021L97.9021 4.95438Z" fill="black"/>
</g>
<defs>
<clipPath id="clip0_14_614">
<rect width="128.649" height="33" fill="white"/>
</clipPath>
</defs>
</svg>
