<svg width="174" height="33" viewBox="0 0 174 33" fill="none" xmlns="http://www.w3.org/2000/svg">
<g clip-path="url(#clip0_14_561)">
<path d="M29.9459 29.9459H36.6006V9.98198H29.9459V29.9459ZM39.9279 6.65465H56.5645V0H39.9279V6.65465ZM29.9459 0H36.6006V6.65465H29.9459V0ZM19.964 29.9459H26.6186V0H19.964V29.9459ZM9.98198 23.2913H16.6366V0H9.98198V23.2913ZM0 29.9459H6.65465V0H0V29.9459ZM39.9279 29.9459H46.5826V9.98198H39.9279V29.9459Z" fill="black"/>
<path d="M62.8062 23.7334C62.8062 19.9989 65.1444 17.2239 68.8269 17.2239C72.5091 17.2239 74.8303 19.9985 74.8303 23.7334C74.8303 27.4679 72.5095 30.2254 68.8269 30.2254C65.1444 30.2254 62.8062 27.4679 62.8062 23.7334ZM72.2474 23.7334C72.2474 21.2379 71.1307 19.3006 68.8444 19.3006C66.5581 19.3006 65.389 21.2375 65.389 23.7334C65.389 26.2114 66.5581 28.1488 68.8444 28.1488C71.1307 28.1488 72.2474 26.2114 72.2474 23.7334Z" fill="#8B959E"/>
<path d="M76.0165 20.9938H78.3028V22.1105H78.3552C78.9312 21.3252 79.7689 20.7492 80.9904 20.7492C83.3636 20.7492 84.8821 22.6861 84.8821 25.4786C84.8821 28.3754 83.3116 30.208 81.0079 30.208C79.7514 30.208 78.9312 29.7018 78.425 28.934H78.3901V32.8781H76.0169V20.9938H76.0165ZM82.4736 25.5485C82.4736 23.8557 81.8801 22.6691 80.4144 22.6691C78.9308 22.6691 78.3377 23.943 78.3377 25.5485C78.3377 27.1714 79.088 28.2361 80.5017 28.2361C81.7058 28.2357 82.4736 27.2412 82.4736 25.5485Z" fill="#8B959E"/>
<path d="M85.5447 25.4611C85.5447 22.8084 87.3423 20.7492 89.96 20.7492C92.8394 20.7492 94.3754 22.9482 94.3754 26.1416H87.8834C88.0581 27.5203 88.8258 28.3754 90.1697 28.3754C91.0947 28.3754 91.6358 27.9566 91.8974 27.2762H94.2357C93.9042 28.8641 92.4905 30.208 90.1871 30.208C87.22 30.208 85.5447 28.1313 85.5447 25.4611ZM87.9183 24.5012H91.8974C91.8275 23.367 91.0772 22.5817 89.9954 22.5817C88.7385 22.5817 88.1275 23.332 87.9183 24.5012Z" fill="#8B959E"/>
<path d="M97.7955 22.2153H97.8479C98.4589 21.2554 99.2791 20.7492 100.501 20.7492C102.351 20.7492 103.59 22.1454 103.59 24.0998V29.9459H101.216V24.4488C101.216 23.4888 100.658 22.8084 99.6634 22.8084C98.6165 22.8084 97.8483 23.6461 97.8483 24.8676V29.9459H95.4751V20.9938H97.7959V22.2153H97.7955Z" fill="#8B959E"/>
<path d="M108.178 17.4685H110.709V27.8343H116.572V29.9459H108.178V17.4685Z" fill="#8B959E"/>
<path d="M117.131 25.4611C117.131 22.8084 118.929 20.7492 121.546 20.7492C124.426 20.7492 125.962 22.9482 125.962 26.1416H119.47C119.644 27.5203 120.412 28.3754 121.756 28.3754C122.681 28.3754 123.222 27.9566 123.484 27.2762H125.822C125.49 28.8641 124.077 30.208 121.773 30.208C118.806 30.208 117.131 28.1313 117.131 25.4611ZM119.504 24.5012H123.483C123.413 23.367 122.663 22.5817 121.581 22.5817C120.324 22.5817 119.714 23.332 119.504 24.5012Z" fill="#8B959E"/>
<path d="M132.418 28.9515H132.383C131.929 29.6319 131.284 30.1556 129.748 30.1556C127.915 30.1556 126.624 29.1956 126.624 27.4155C126.624 25.4436 128.229 24.8152 130.219 24.5361C131.702 24.3265 132.383 24.2046 132.383 23.5238C132.383 22.8783 131.877 22.4595 130.882 22.4595C129.766 22.4595 129.225 22.8608 129.155 23.7159H127.043C127.113 22.1454 128.282 20.7667 130.9 20.7667C133.588 20.7667 134.669 21.9708 134.669 24.0649V28.6196C134.669 29.3 134.774 29.7014 134.983 29.8586V29.9459H132.697C132.557 29.7717 132.47 29.3528 132.418 28.9515ZM132.435 26.7875V25.4437C132.017 25.6882 131.371 25.8275 130.778 25.9673C129.539 26.2464 128.928 26.5259 128.928 27.3635C128.928 28.2012 129.486 28.4977 130.324 28.4977C131.685 28.4977 132.435 27.6601 132.435 26.7875Z" fill="#8B959E"/>
<path d="M138.456 22.4245H138.508C139.049 21.4122 139.66 20.889 140.707 20.889C140.969 20.889 141.126 20.9064 141.266 20.9588V23.0355H141.213C139.66 22.8783 138.543 23.6985 138.543 25.5834V29.9459H136.17V20.9938H138.456V22.4245H138.456Z" fill="#8B959E"/>
<path d="M144.616 22.2153H144.668C145.279 21.2554 146.1 20.7492 147.321 20.7492C149.171 20.7492 150.41 22.1454 150.41 24.0998V29.9459H148.037V24.4488C148.037 23.4888 147.478 22.8084 146.484 22.8084C145.437 22.8084 144.669 23.6461 144.669 24.8676V29.9459H142.296V20.9938H144.616V22.2153H144.616Z" fill="#8B959E"/>
<path d="M151.875 17.4685H154.248V19.5975H151.875V17.4685ZM151.875 20.9938H154.248V29.9459H151.875V20.9938Z" fill="#8B959E"/>
<path d="M158.105 22.2153H158.158C158.769 21.2554 159.589 20.7492 160.81 20.7492C162.66 20.7492 163.899 22.1454 163.899 24.0998V29.9459H161.526V24.4488C161.526 23.4888 160.968 22.8084 159.973 22.8084C158.926 22.8084 158.158 23.6461 158.158 24.8676V29.9459H155.785V20.9938H158.106V22.2153H158.105Z" fill="#8B959E"/>
<path d="M165.121 30.208H167.476C167.669 30.7665 168.174 31.2028 169.274 31.2028C170.618 31.2028 171.263 30.5573 171.263 29.3354V28.358H171.211C170.687 28.9515 170.007 29.4048 168.873 29.4048C166.883 29.4048 164.928 27.8343 164.928 25.1292C164.928 22.459 166.534 20.7488 168.803 20.7488C169.919 20.7488 170.74 21.1851 171.281 21.9354H171.316V20.9929H173.602V29.2647C173.602 30.5211 173.201 31.3763 172.538 31.9873C171.787 32.6852 170.635 32.9996 169.309 32.9996C166.866 33 165.365 31.9531 165.121 30.208ZM171.386 25.0772C171.386 23.7683 170.688 22.6516 169.256 22.6516C168.052 22.6516 167.25 23.5941 167.25 25.0947C167.25 26.6128 168.052 27.5029 169.274 27.5029C170.775 27.5029 171.386 26.4036 171.386 25.0772Z" fill="#8B959E"/>
<path d="M63.3473 0H68.9318C70.2756 0 71.305 0.331485 71.9509 0.907528C72.6314 1.51851 72.9458 2.26882 72.9458 3.24581C72.9458 4.51976 72.1605 5.33994 70.9914 5.7413V5.79371C72.3702 6.19507 73.3122 7.34674 73.3122 8.88271C73.3122 10.0519 72.9458 10.8546 72.213 11.483C71.4976 12.1115 70.3979 12.4779 69.0715 12.4779H63.3477V0H63.3473ZM68.6174 5.02593C69.7166 5.02593 70.4674 4.50229 70.4674 3.5253C70.4674 2.60031 69.7869 2.0592 68.6698 2.0592H65.8777V5.02593H68.6174ZM65.8777 10.3833H68.792C70.0136 10.3833 70.7464 9.7029 70.7464 8.69056C70.7464 7.50395 69.8738 6.89297 68.7222 6.89297H65.8777V10.3833Z" fill="black"/>
<path d="M74.3412 8.01012C74.3412 5.33995 76.2432 3.28075 79.0182 3.28075C81.7927 3.28075 83.6951 5.33995 83.6951 8.01012C83.6951 10.6803 81.7931 12.7395 79.0182 12.7395C76.2432 12.7395 74.3412 10.6803 74.3412 8.01012ZM81.2866 8.01012C81.2866 6.26494 80.4664 5.07833 79.0177 5.07833C77.5516 5.07833 76.7489 6.26494 76.7489 8.01012C76.7489 9.75531 77.5516 10.9244 79.0177 10.9244C80.4664 10.9244 81.2866 9.75531 81.2866 8.01012Z" fill="black"/>
<path d="M84.3577 8.01012C84.3577 5.33995 86.2601 3.28075 89.0346 3.28075C91.8092 3.28075 93.7116 5.33995 93.7116 8.01012C93.7116 10.6803 91.8096 12.7395 89.0346 12.7395C86.2601 12.7395 84.3577 10.6803 84.3577 8.01012ZM91.3035 8.01012C91.3035 6.26494 90.4833 5.07833 89.0346 5.07833C87.5685 5.07833 86.7658 6.26494 86.7658 8.01012C86.7658 9.75531 87.5685 10.9244 89.0346 10.9244C90.4833 10.9244 91.3035 9.75531 91.3035 8.01012Z" fill="black"/>
<path d="M94.1126 3.52531H95.3516V0.732849H97.6724V3.52489H99.208V5.09539H97.6724V9.84224C97.6724 10.5052 98.0388 10.7323 98.5625 10.7323C98.859 10.7323 99.2604 10.7148 99.2604 10.7148V12.46C99.2604 12.46 98.7193 12.4949 97.7768 12.4949C96.6251 12.4949 95.3512 12.0412 95.3512 10.3484V5.09539H94.1122V3.52531H94.1126Z" fill="black"/>
<path d="M99.9062 8.01012C99.9062 5.33995 101.651 3.28075 104.374 3.28075C106.695 3.28075 108.126 4.62457 108.44 6.56149H106.119C105.962 5.77624 105.351 5.18273 104.478 5.18273C103.047 5.18273 102.314 6.28199 102.314 8.00971C102.314 9.70249 102.995 10.8367 104.443 10.8367C105.403 10.8367 106.084 10.3305 106.241 9.3186H108.527C108.37 11.2206 106.887 12.7391 104.496 12.7391C101.669 12.7395 99.9062 10.6803 99.9062 8.01012Z" fill="black"/>
<path d="M115.089 11.483H115.054C114.6 12.1635 113.955 12.6871 112.419 12.6871C110.586 12.6871 109.295 11.7272 109.295 9.94705C109.295 7.97519 110.9 7.34674 112.89 7.06766C114.373 6.85804 115.054 6.73618 115.054 6.05532C115.054 5.40982 114.548 4.99099 113.553 4.99099C112.437 4.99099 111.896 5.39235 111.826 6.24748H109.714C109.784 4.67698 110.953 3.29822 113.571 3.29822C116.258 3.29822 117.34 4.50229 117.34 6.59643V11.1511C117.34 11.8316 117.445 12.2329 117.654 12.3901V12.4775H115.368C115.229 12.3032 115.141 11.8844 115.089 11.483ZM115.106 9.31901V7.97519C114.688 8.21975 114.042 8.35908 113.449 8.49883C112.21 8.77791 111.599 9.0574 111.599 9.89506C111.599 10.7327 112.157 11.0293 112.995 11.0293C114.356 11.0293 115.106 10.1916 115.106 9.31901Z" fill="black"/>
<path d="M118.84 3.52531H121.127V4.72938H121.179C121.668 3.9092 122.54 3.28075 123.779 3.28075C124.914 3.28075 125.821 3.9092 126.257 4.85124H126.292C126.903 3.87384 127.845 3.28075 128.98 3.28075C130.865 3.28075 131.929 4.50229 131.929 6.45668V12.4775H129.556V6.85845C129.556 5.84611 129.05 5.32289 128.177 5.32289C127.182 5.32289 126.572 6.09067 126.572 7.27728V12.4775H124.199V6.85845C124.199 5.84611 123.693 5.32289 122.82 5.32289C121.86 5.32289 121.214 6.09067 121.214 7.27728V12.4775H118.841V3.52531H118.84Z" fill="black"/>
<path d="M133.395 3.52531H135.681V4.64204H135.733C136.309 3.85679 137.147 3.28075 138.368 3.28075C140.742 3.28075 142.26 5.21767 142.26 8.01012C142.26 10.907 140.69 12.7395 138.386 12.7395C137.129 12.7395 136.309 12.2333 135.803 11.4656H135.768V15.4097H133.395V3.52531H133.395ZM139.852 8.08C139.852 6.38722 139.258 5.20061 137.792 5.20061C136.309 5.20061 135.716 6.47456 135.716 8.08C135.716 9.7029 136.466 10.7676 137.88 10.7676C139.084 10.7672 139.852 9.77277 139.852 8.08Z" fill="black"/>
<path d="M142.801 9.58062H144.999C145.157 10.6104 145.89 11.0642 146.954 11.0642C148.001 11.0642 148.594 10.6628 148.594 10.0344C148.594 9.17926 147.46 9.09192 146.239 8.84778C144.633 8.53376 143.063 8.09747 143.063 6.14266C143.063 4.20574 144.668 3.28075 146.71 3.28075C149.065 3.28075 150.374 4.44989 150.549 6.24747H148.403C148.298 5.28754 147.687 4.93859 146.675 4.93859C145.75 4.93859 145.139 5.28754 145.139 5.93346C145.139 6.70124 146.326 6.77111 147.6 7.03272C149.1 7.34674 150.759 7.76557 150.759 9.8597C150.759 11.6573 149.223 12.7391 146.989 12.7391C144.389 12.7395 142.94 11.483 142.801 9.58062Z" fill="black"/>
</g>
<defs>
<clipPath id="clip0_14_561">
<rect width="173.602" height="33" fill="white"/>
</clipPath>
</defs>
</svg>
